<svg id="facebook" xmlns="http://www.w3.org/2000/svg" width="50" height="50" viewBox="0 0 50 50">
  <path id="Path_5" data-name="Path 5" d="M961.75,381.407h0a25,25,0,0,1-25-25h0a25,25,0,0,1,25-25h0a25,25,0,0,1,25,25h0A25,25,0,0,1,961.75,381.407Z" transform="translate(-936.75 -331.407)" fill="#fff"/>
  <g id="Group_31" data-name="Group 31" transform="translate(19.508 13.857)">
    <path id="Path_237" data-name="Path 237" d="M970.063,356.562h-3.107v11.13H962.32v-11.13h-2.19V352.64h2.19v-2.547a5.512,5.512,0,0,1,.357-2.012,3.91,3.91,0,0,1,1.4-1.859,4.89,4.89,0,0,1,2.9-.815l3.438.025v3.82h-2.5a.987.987,0,0,0-.637.2,1.072,1.072,0,0,0-.331.866v2.318h3.515Z" transform="translate(-960.13 -345.407)" fill="#7340ff"/>
  </g>
</svg>
