<svg xmlns="http://www.w3.org/2000/svg" width="147.398" height="96.037" viewBox="0 0 147.398 96.037">
  <g id="fast" transform="translate(-484 -1913.161)">
    <path id="ic_schedule_24px" d="M43.362.291C20.634,1.162,1.364,20.178.3,42.741s16.474,40.169,39.2,39.3c22.77-.872,42.081-19.89,43.147-42.452S66.132-.581,43.362.291ZM39.927,73.863c-18.2.7-32.248-13.371-31.394-31.438S24.818,9.162,43.017,8.465,75.266,21.836,74.412,39.9,58.126,73.166,39.927,73.863ZM44.5,20.648l-6.176.237L37.162,45.409,58.17,57.456,61.5,52.311l-18.013-10.2Z" transform="translate(550.274 1912.857) rotate(11)" fill="#7340ff"/>
    <rect id="Rectangle_15" data-name="Rectangle 15" width="35" height="5" rx="2.5" transform="translate(492 1947.255)" fill="#7340ff"/>
    <rect id="Rectangle_16" data-name="Rectangle 16" width="36" height="5" rx="2.5" transform="translate(484 1958.715)" fill="#7340ff"/>
    <rect id="Rectangle_17" data-name="Rectangle 17" width="35" height="5" rx="2.5" transform="translate(492 1969.41)" fill="#7340ff"/>
  </g>
</svg>
