<svg xmlns="http://www.w3.org/2000/svg" width="78.281" height="74.367" viewBox="0 0 78.281 74.367">
  <path id="giftcard" d="M72.453,17.656H63.92A11.714,11.714,0,0,0,43.1,7.284L41.14,9.906,39.183,7.245a11.745,11.745,0,0,0-21.527,6.5,11.76,11.76,0,0,0,.7,3.914H9.828a7.768,7.768,0,0,0-7.789,7.828L2,68.539a7.8,7.8,0,0,0,7.828,7.828H72.453a7.8,7.8,0,0,0,7.828-7.828V25.484A7.8,7.8,0,0,0,72.453,17.656ZM52.882,9.828a3.914,3.914,0,1,1-3.914,3.914A3.926,3.926,0,0,1,52.882,9.828Zm-23.484,0a3.914,3.914,0,1,1-3.914,3.914A3.926,3.926,0,0,1,29.4,9.828Zm43.054,58.71H9.828V60.71H72.453Zm0-19.57H9.828V25.484H29.711L21.57,36.561l6.341,4.579,9.315-12.681,3.914-5.323,3.914,5.323L54.37,41.14l6.341-4.579L52.569,25.484H72.453Z" transform="translate(-2 -2)" fill="#7340ff"/>
</svg>
