<svg id="instagram" xmlns="http://www.w3.org/2000/svg" width="50" height="50" viewBox="0 0 50 50">
  <path id="Path_238" data-name="Path 238" d="M818.043,598.574h0a25,25,0,0,1-25-25h0a25,25,0,0,1,25-25h0a25,25,0,0,1,25,25h0A25,25,0,0,1,818.043,598.574Z" transform="translate(-793.043 -548.574)" fill="#fff"/>
  <g id="Group_33" data-name="Group 33" transform="translate(13.836 13.857)">
    <path id="Path_253" data-name="Path 253" d="M809.854,568.074V563.26a.678.678,0,0,1,.051-.344,1,1,0,0,1,.357-.166l.229-.051v5.374h.917V562.6h.586v5.476h.917v-5.5h12.047a4.147,4.147,0,0,1,2.127.572,4.511,4.511,0,0,1,1.579,1.541,4.089,4.089,0,0,1,.624,2.088q.025.637.025,1.528-.026,1.885-.025,1.553h-6.826a.438.438,0,0,1-.357-.153,5.867,5.867,0,0,0-2.521-1.375,5.5,5.5,0,0,0-2.8.013,5.967,5.967,0,0,0-2.521,1.388.367.367,0,0,1-.255.127h-6.749l-.127-.025v-.968q-.026.3-.025-1.172a11.337,11.337,0,0,1,.051-1.172,4.126,4.126,0,0,1,1.707-3.082l.1-.025v4.661h.891Zm12.989,2.47h6.444v10.009a4.185,4.185,0,0,1-.586,2.165,4.3,4.3,0,0,1-1.579,1.566,4.257,4.257,0,0,1-2.165.573h-13.5a4.019,4.019,0,0,1-2.165-.561,4.494,4.494,0,0,1-1.592-1.578,4.116,4.116,0,0,1-.6-2.165v-9.984h6.444a5.606,5.606,0,0,0-.713,5.145,5.79,5.79,0,0,0,4.572,3.731,5.748,5.748,0,0,0,2.432-.192,5.565,5.565,0,0,0,2.139-1.2,5.408,5.408,0,0,0,1.426-2.038,5.738,5.738,0,0,0,.433-2.648A6.171,6.171,0,0,0,822.843,570.544Zm-4.635,7.641a4.441,4.441,0,0,1-2.216-.573,4.211,4.211,0,0,1-1.6-1.578,4.387,4.387,0,0,1,0-4.38,4.4,4.4,0,0,1,1.6-1.605,4.277,4.277,0,0,1,2.2-.6,4.212,4.212,0,0,1,2.19.6,4.443,4.443,0,0,1,1.592,1.605,4.387,4.387,0,0,1,0,4.38,4.237,4.237,0,0,1-1.592,1.578A4.319,4.319,0,0,1,818.208,578.185Zm3.209-4.355a3.258,3.258,0,0,0-1.6-2.8,3.237,3.237,0,0,0-3.235,0,3.234,3.234,0,0,0-1.172,1.172,3.237,3.237,0,0,0,0,3.234,3.313,3.313,0,0,0,1.172,1.184,3.07,3.07,0,0,0,1.617.446,3.139,3.139,0,0,0,1.617-.434,3.227,3.227,0,0,0,1.172-1.172A3.163,3.163,0,0,0,821.417,573.83Zm5.858-7.513v-1.172a.7.7,0,0,0-.191-.521.672.672,0,0,0-.5-.191q-1.172-.025-2.369,0a.64.64,0,0,0-.509.2.783.783,0,0,0-.178.535v2.344a.7.7,0,0,0,.191.521.672.672,0,0,0,.5.192h2.343a.661.661,0,0,0,.713-.713Z" transform="translate(-807.103 -562.572)" fill="#7340ff"/>
  </g>
</svg>
