<svg id="telegram" xmlns="http://www.w3.org/2000/svg" width="50" height="50" viewBox="0 0 50 50">
  <path id="Path_322" data-name="Path 322" d="M1033.92,1102.41h0a25,25,0,0,1-25-25h0a25,25,0,0,1,25-25h0a25,25,0,0,1,25,25h0A25.007,25.007,0,0,1,1033.92,1102.41Z" transform="translate(-1008.92 -1052.41)" fill="#fff"/>
  <g id="Group_37" data-name="Group 37" transform="translate(13.857 13.857)">
    <path id="Path_298" data-name="Path 298" d="M1034.063,1066.435a11.066,11.066,0,0,1,9.627,5.5,10.806,10.806,0,0,1,1.515,5.629,11.152,11.152,0,0,1-1.515,5.628,11.151,11.151,0,0,1-19.254,0,11.139,11.139,0,0,1-1.515-5.628,10.813,10.813,0,0,1,1.515-5.629,11.012,11.012,0,0,1,4-4,11.241,11.241,0,0,1,5.628-1.527Zm5.425,6.386q0-.3-.229-.357a.875.875,0,0,0-.459.026l-.229.076L1027.264,1077a1,1,0,0,0-.268.191.292.292,0,0,0-.089.267.511.511,0,0,0,.255.357l.229.127,2.8.942,6.749-4.279.178-.076c.136-.051.2-.025.2.076l-.153.229-5.3,4.788v.051l1.732,1.375,2.852,2.164a.779.779,0,0,0,.611.051.7.7,0,0,0,.332-.229,1.572,1.572,0,0,1,.1-.178Z" transform="translate(-1022.921 -1066.41)" fill="#7340ff"/>
  </g>
</svg>
