<svg id="youtube" xmlns="http://www.w3.org/2000/svg" width="50" height="50" viewBox="0 0 50 50">
  <path id="Path_254" data-name="Path 254" d="M962.25,1390.58h0a25,25,0,0,1-25-25h0a25,25,0,0,1,25-25h0a25,25,0,0,1,25,25h0A25,25,0,0,1,962.25,1390.58Z" transform="translate(-937.25 -1340.58)" fill="#fff"/>
  <g id="Group_35" data-name="Group 35" transform="translate(13.85 16.984)">
    <path id="Path_321" data-name="Path 321" d="M973.53,1367.619q0,1.859-.026,2.318-.1,1.5-.2,2.19a5.373,5.373,0,0,1-.331,1.248,2.5,2.5,0,0,1-.611.968,2.935,2.935,0,0,1-1.554.815q-4.839.357-10.315.255-3.209-.051-4.572-.115a15.27,15.27,0,0,1-2.025-.191,2.98,2.98,0,0,1-1.5-.79,3.461,3.461,0,0,1-.713-1.4,4.767,4.767,0,0,1-.191-.789q-.064-.408-.115-1.223a52.534,52.534,0,0,1,0-6.571l.153-1.248a5.915,5.915,0,0,1,.28-1.222,2.792,2.792,0,0,1,.662-1.019,3.251,3.251,0,0,1,1.5-.764,25.847,25.847,0,0,1,3.095-.2q2.457-.077,5.336-.077t5.336.09q2.457.09,3.12.191a3.094,3.094,0,0,1,.981.382,2.516,2.516,0,0,1,.751.662,4.622,4.622,0,0,1,.586,1.375,7.727,7.727,0,0,1,.255,1.452q0,.128.076,1.35C973.521,1365.607,973.53,1366.384,973.53,1367.619Zm-10.264,1.248q2.011-1.018,2.853-1.477l-5.985-3.158v6.291Q961.177,1369.94,963.266,1368.867Z" transform="translate(-951.27 -1359.8)" fill="#7340ff"/>
  </g>
</svg>
